<?xml version="1.0" encoding="UTF-8"?><svg xmlns="http://www.w3.org/2000/svg" xmlns:xlink="http://www.w3.org/1999/xlink" viewBox="0 0 32 32" version="1.1"><path d="M29.555 8.504c-.059-.074-.114-.145-.176-.211-.05-.05-.098-.102-.152-.145a2.007 2.007 0 0 0-.438-.296l-7.242-3.567a2.746 2.746 0 0 0-.586-.207c-.211-.05-.43-.078-.648-.078-.97 0-1.891.504-2.399 1.316l-1.004 1.61-2.308 3.691-.887-1.957a2.132 2.132 0 0 0-.86-.777l-6.867-3.38-.218-.108c-.403-.2-.82-.297-1.243-.297C3.086 4.098 2 5.227 2 6.727v15.035c0 1.164.73 2.336 1.781 2.851l6.227 3.067c.433.21.883.32 1.336.32C12.855 28 14 26.8 14 25.21v-3.444l4 1.968 7.418 3.653.367.183c.5.246 1.012.371 1.512.371 1.543 0 2.703-1.175 2.703-2.73V9.797c0-.485-.172-.926-.445-1.293zM12 18.554v6.657c0 .492-.27.789-.656.789a.975.975 0 0 1-.45-.117l-6.23-3.067C4.301 22.636 4 22.16 4 21.762V6.727c0-.395.219-.63.527-.63.11 0 .23.028.36.09l.218.11h.004l6.864 3.379c.011.008.02.015.027.027zm2.883 1.419L14 19.535v-5.414l3.172 6.977zm.71-7.172l3.06-4.895.956-1.531A.837.837 0 0 1 20.312 6c.024 0 .043.012.067.016.098.007.195.02.285.062l7.242 3.567c.032.015.032.05.047.082 0 .015.004.03-.004.046l-6 9.598L20 22.492zM28 25.21c0 .465-.285.73-.703.73-.188 0-.399-.054-.625-.168l-1.89-.93-2.977-1.464.554-.887L28 13.465z" id="surface1"/><metadata><rdf:RDF xmlns:rdf="http://www.w3.org/1999/02/22-rdf-syntax-ns#" xmlns:rdfs="http://www.w3.org/2000/01/rdf-schema#" xmlns:dc="http://purl.org/dc/elements/1.1/"><rdf:Description about="https://iconscout.com/legal#licenses" dc:title="medium" dc:description="medium" dc:publisher="Iconscout" dc:date="2017-12-30" dc:format="image/svg+xml" dc:language="en"><dc:creator><rdf:Bag><rdf:li>Icons8</rdf:li></rdf:Bag></dc:creator></rdf:Description></rdf:RDF></metadata></svg>